<svg xmlns="http://www.w3.org/2000/svg" xmlns:xlink="http://www.w3.org/1999/xlink" width="318" height="217" viewBox="0 0 318 217">
  <defs>
    <filter id="Rectangle_1232" x="0" y="0" width="318" height="217" filterUnits="userSpaceOnUse">
      <feOffset dy="3" input="SourceAlpha"/>
      <feGaussianBlur stdDeviation="3" result="blur"/>
      <feFlood flood-opacity="0.702"/>
      <feComposite operator="in" in2="blur"/>
      <feComposite in="SourceGraphic"/>
    </filter>
    <filter id="Rectangle_1228" x="120.787" y="65" width="56" height="121" filterUnits="userSpaceOnUse">
      <feOffset dx="8" dy="8" input="SourceAlpha"/>
      <feGaussianBlur stdDeviation="1" result="blur-2"/>
      <feFlood flood-color="#0d0f1c" flood-opacity="0.502"/>
      <feComposite operator="in" in2="blur-2"/>
      <feComposite in="SourceGraphic"/>
    </filter>
    <filter id="Rectangle_1229" x="59.575" y="65" width="56" height="121" filterUnits="userSpaceOnUse">
      <feOffset dx="8" dy="8" input="SourceAlpha"/>
      <feGaussianBlur stdDeviation="1" result="blur-3"/>
      <feFlood flood-color="#0d0f1c" flood-opacity="0.502"/>
      <feComposite operator="in" in2="blur-3"/>
      <feComposite in="SourceGraphic"/>
    </filter>
    <filter id="Rectangle_1230" x="243.212" y="65" width="56" height="121" filterUnits="userSpaceOnUse">
      <feOffset dx="8" dy="8" input="SourceAlpha"/>
      <feGaussianBlur stdDeviation="1" result="blur-4"/>
      <feFlood flood-color="#0d0f1c" flood-opacity="0.502"/>
      <feComposite operator="in" in2="blur-4"/>
      <feComposite in="SourceGraphic"/>
    </filter>
    <filter id="Rectangle_1231" x="182" y="65" width="56" height="121" filterUnits="userSpaceOnUse">
      <feOffset dx="8" dy="8" input="SourceAlpha"/>
      <feGaussianBlur stdDeviation="1" result="blur-5"/>
      <feFlood flood-color="#0d0f1c" flood-opacity="0.502"/>
      <feComposite operator="in" in2="blur-5"/>
      <feComposite in="SourceGraphic"/>
    </filter>
    <filter id="Rectangle_1233" x="53.718" y="23.981" width="56.712" height="36" filterUnits="userSpaceOnUse">
      <feOffset dy="3" input="SourceAlpha"/>
      <feGaussianBlur stdDeviation="3" result="blur-6"/>
      <feFlood flood-opacity="0.502"/>
      <feComposite operator="in" in2="blur-6"/>
      <feComposite in="SourceGraphic"/>
    </filter>
    <filter id="Rectangle_1248" x="13" y="67" width="39.362" height="27.76" filterUnits="userSpaceOnUse">
      <feOffset dy="3" input="SourceAlpha"/>
      <feGaussianBlur stdDeviation="3" result="blur-7"/>
      <feFlood flood-opacity="0.502"/>
      <feComposite operator="in" in2="blur-7"/>
      <feComposite in="SourceGraphic"/>
    </filter>
    <filter id="Rectangle_1259" x="114.931" y="23.981" width="56.712" height="36" filterUnits="userSpaceOnUse">
      <feOffset dy="3" input="SourceAlpha"/>
      <feGaussianBlur stdDeviation="3" result="blur-8"/>
      <feFlood flood-opacity="0.502"/>
      <feComposite operator="in" in2="blur-8"/>
      <feComposite in="SourceGraphic"/>
    </filter>
    <filter id="Rectangle_1260" x="176.143" y="23.981" width="56.712" height="36" filterUnits="userSpaceOnUse">
      <feOffset dy="3" input="SourceAlpha"/>
      <feGaussianBlur stdDeviation="3" result="blur-9"/>
      <feFlood flood-opacity="0.502"/>
      <feComposite operator="in" in2="blur-9"/>
      <feComposite in="SourceGraphic"/>
    </filter>
    <filter id="Rectangle_1261" x="237.355" y="23.981" width="56.712" height="36" filterUnits="userSpaceOnUse">
      <feOffset dy="3" input="SourceAlpha"/>
      <feGaussianBlur stdDeviation="3" result="blur-10"/>
      <feFlood flood-opacity="0.502"/>
      <feComposite operator="in" in2="blur-10"/>
      <feComposite in="SourceGraphic"/>
    </filter>
    <filter id="Rectangle_1262" x="13" y="82" width="39.362" height="27.76" filterUnits="userSpaceOnUse">
      <feOffset dy="3" input="SourceAlpha"/>
      <feGaussianBlur stdDeviation="3" result="blur-11"/>
      <feFlood flood-opacity="0.502"/>
      <feComposite operator="in" in2="blur-11"/>
      <feComposite in="SourceGraphic"/>
    </filter>
    <filter id="Rectangle_1263" x="13" y="97" width="39.362" height="27.76" filterUnits="userSpaceOnUse">
      <feOffset dy="3" input="SourceAlpha"/>
      <feGaussianBlur stdDeviation="3" result="blur-12"/>
      <feFlood flood-opacity="0.502"/>
      <feComposite operator="in" in2="blur-12"/>
      <feComposite in="SourceGraphic"/>
    </filter>
    <filter id="Rectangle_1264" x="13" y="112" width="39.362" height="27.76" filterUnits="userSpaceOnUse">
      <feOffset dy="3" input="SourceAlpha"/>
      <feGaussianBlur stdDeviation="3" result="blur-13"/>
      <feFlood flood-opacity="0.502"/>
      <feComposite operator="in" in2="blur-13"/>
      <feComposite in="SourceGraphic"/>
    </filter>
    <filter id="Rectangle_1265" x="13" y="127" width="39.362" height="27.76" filterUnits="userSpaceOnUse">
      <feOffset dy="3" input="SourceAlpha"/>
      <feGaussianBlur stdDeviation="3" result="blur-14"/>
      <feFlood flood-opacity="0.502"/>
      <feComposite operator="in" in2="blur-14"/>
      <feComposite in="SourceGraphic"/>
    </filter>
    <filter id="Rectangle_1266" x="13" y="142" width="39.362" height="27.76" filterUnits="userSpaceOnUse">
      <feOffset dy="3" input="SourceAlpha"/>
      <feGaussianBlur stdDeviation="3" result="blur-15"/>
      <feFlood flood-opacity="0.502"/>
      <feComposite operator="in" in2="blur-15"/>
      <feComposite in="SourceGraphic"/>
    </filter>
    <filter id="Rectangle_1267" x="13" y="157" width="39.362" height="27.76" filterUnits="userSpaceOnUse">
      <feOffset dy="3" input="SourceAlpha"/>
      <feGaussianBlur stdDeviation="3" result="blur-16"/>
      <feFlood flood-opacity="0.502"/>
      <feComposite operator="in" in2="blur-16"/>
      <feComposite in="SourceGraphic"/>
    </filter>
  </defs>
  <g id="Group_32" data-name="Group 32" transform="translate(-316 -1695)">
    <g id="Group_25" data-name="Group 25" transform="translate(229 -373.625)">
      <g transform="matrix(1, 0, 0, 1, 87, 2068.63)" filter="url(#Rectangle_1232)">
        <rect id="Rectangle_1232-2" data-name="Rectangle 1232" width="300" height="199" rx="20" transform="translate(9 6)" fill="#2d2d2d"/>
      </g>
      <g transform="matrix(1, 0, 0, 1, 87, 2068.63)" filter="url(#Rectangle_1228)">
        <g id="Rectangle_1228-2" data-name="Rectangle 1228" transform="translate(120.79 65)" fill="#25a1fe" stroke="#707070" stroke-width="1">
          <rect width="45" height="110" rx="10" stroke="none"/>
          <rect x="0.5" y="0.5" width="44" height="109" rx="9.5" fill="none"/>
        </g>
      </g>
      <g transform="matrix(1, 0, 0, 1, 87, 2068.63)" filter="url(#Rectangle_1229)">
        <g id="Rectangle_1229-2" data-name="Rectangle 1229" transform="translate(59.57 65)" fill="#34b487" stroke="#707070" stroke-width="1">
          <rect width="45" height="110" rx="10" stroke="none"/>
          <rect x="0.5" y="0.5" width="44" height="109" rx="9.5" fill="none"/>
        </g>
      </g>
      <g transform="matrix(1, 0, 0, 1, 87, 2068.63)" filter="url(#Rectangle_1230)">
        <g id="Rectangle_1230-2" data-name="Rectangle 1230" transform="translate(243.21 65)" fill="#ff962d" stroke="#707070" stroke-width="1">
          <rect width="45" height="110" rx="10" stroke="none"/>
          <rect x="0.5" y="0.5" width="44" height="109" rx="9.5" fill="none"/>
        </g>
      </g>
      <g transform="matrix(1, 0, 0, 1, 87, 2068.63)" filter="url(#Rectangle_1231)">
        <g id="Rectangle_1231-2" data-name="Rectangle 1231" transform="translate(182 65)" fill="#da82ff" stroke="#707070" stroke-width="1">
          <rect width="45" height="110" rx="10" stroke="none"/>
          <rect x="0.5" y="0.5" width="44" height="109" rx="9.5" fill="none"/>
        </g>
      </g>
      <g transform="matrix(1, 0, 0, 1, 87, 2068.63)" filter="url(#Rectangle_1233)">
        <rect id="Rectangle_1233-2" data-name="Rectangle 1233" width="38.712" height="18" rx="9" transform="translate(62.72 29.98)" fill="#80868b"/>
      </g>
      <g transform="matrix(1, 0, 0, 1, 87, 2068.63)" filter="url(#Rectangle_1248)">
        <rect id="Rectangle_1248-2" data-name="Rectangle 1248" width="21.362" height="9.76" rx="4.88" transform="translate(22 73)" fill="#80868b"/>
      </g>
      <g transform="matrix(1, 0, 0, 1, 87, 2068.63)" filter="url(#Rectangle_1259)">
        <rect id="Rectangle_1259-2" data-name="Rectangle 1259" width="38.712" height="18" rx="9" transform="translate(123.93 29.98)" fill="#80868b"/>
      </g>
      <g transform="matrix(1, 0, 0, 1, 87, 2068.63)" filter="url(#Rectangle_1260)">
        <rect id="Rectangle_1260-2" data-name="Rectangle 1260" width="38.712" height="18" rx="9" transform="translate(185.14 29.98)" fill="#80868b"/>
      </g>
      <g transform="matrix(1, 0, 0, 1, 87, 2068.63)" filter="url(#Rectangle_1261)">
        <rect id="Rectangle_1261-2" data-name="Rectangle 1261" width="38.712" height="18" rx="9" transform="translate(246.36 29.98)" fill="#80868b"/>
      </g>
      <g transform="matrix(1, 0, 0, 1, 87, 2068.63)" filter="url(#Rectangle_1262)">
        <rect id="Rectangle_1262-2" data-name="Rectangle 1262" width="21.362" height="9.76" rx="4.88" transform="translate(22 88)" fill="#80868b"/>
      </g>
      <g transform="matrix(1, 0, 0, 1, 87, 2068.63)" filter="url(#Rectangle_1263)">
        <rect id="Rectangle_1263-2" data-name="Rectangle 1263" width="21.362" height="9.76" rx="4.88" transform="translate(22 103)" fill="#80868b"/>
      </g>
      <g transform="matrix(1, 0, 0, 1, 87, 2068.63)" filter="url(#Rectangle_1264)">
        <rect id="Rectangle_1264-2" data-name="Rectangle 1264" width="21.362" height="9.76" rx="4.88" transform="translate(22 118)" fill="#80868b"/>
      </g>
      <g transform="matrix(1, 0, 0, 1, 87, 2068.63)" filter="url(#Rectangle_1265)">
        <rect id="Rectangle_1265-2" data-name="Rectangle 1265" width="21.362" height="9.76" rx="4.88" transform="translate(22 133)" fill="#80868b"/>
      </g>
      <g transform="matrix(1, 0, 0, 1, 87, 2068.63)" filter="url(#Rectangle_1266)">
        <rect id="Rectangle_1266-2" data-name="Rectangle 1266" width="21.362" height="9.76" rx="4.88" transform="translate(22 148)" fill="#80868b"/>
      </g>
      <g transform="matrix(1, 0, 0, 1, 87, 2068.63)" filter="url(#Rectangle_1267)">
        <rect id="Rectangle_1267-2" data-name="Rectangle 1267" width="21.362" height="9.76" rx="4.88" transform="translate(22 163)" fill="#80868b"/>
      </g>
    </g>
  </g>
</svg>
