<svg xmlns="http://www.w3.org/2000/svg" xmlns:xlink="http://www.w3.org/1999/xlink" width="162.06" height="217" viewBox="0 0 162.06 217">
  <defs>
    <filter id="Rectangle_1145" x="0" y="0" width="162.06" height="39.849" filterUnits="userSpaceOnUse">
      <feOffset dx="3" dy="5" input="SourceAlpha"/>
      <feGaussianBlur stdDeviation="1" result="blur"/>
      <feFlood flood-opacity="0.271"/>
      <feComposite operator="in" in2="blur"/>
      <feComposite in="SourceGraphic"/>
    </filter>
    <filter id="Ellipse_79" x="6.03" y="10.641" width="18" height="18" filterUnits="userSpaceOnUse">
      <feOffset dx="5" dy="5" input="SourceAlpha"/>
      <feGaussianBlur stdDeviation="1" result="blur-2"/>
      <feFlood flood-color="#1f1f1f"/>
      <feComposite operator="in" in2="blur-2"/>
      <feComposite in="SourceGraphic"/>
    </filter>
    <filter id="Rectangle_1146" x="30.03" y="5.641" width="105" height="16" filterUnits="userSpaceOnUse">
      <feOffset dx="6" dy="6" input="SourceAlpha"/>
      <feGaussianBlur stdDeviation="1" result="blur-3"/>
      <feFlood flood-color="#1f1f1f"/>
      <feComposite operator="in" in2="blur-3"/>
      <feComposite in="SourceGraphic"/>
    </filter>
    <filter id="Rectangle_1271" x="41.03" y="17.641" width="105" height="16" filterUnits="userSpaceOnUse">
      <feOffset dx="6" dy="6" input="SourceAlpha"/>
      <feGaussianBlur stdDeviation="1" result="blur-4"/>
      <feFlood flood-color="#1f1f1f"/>
      <feComposite operator="in" in2="blur-4"/>
      <feComposite in="SourceGraphic"/>
    </filter>
    <filter id="Rectangle_1272" x="0" y="59.05" width="162.06" height="39.849" filterUnits="userSpaceOnUse">
      <feOffset dx="3" dy="5" input="SourceAlpha"/>
      <feGaussianBlur stdDeviation="1" result="blur-5"/>
      <feFlood flood-opacity="0.271"/>
      <feComposite operator="in" in2="blur-5"/>
      <feComposite in="SourceGraphic"/>
    </filter>
    <filter id="Ellipse_102" x="6.03" y="70.09" width="18" height="18" filterUnits="userSpaceOnUse">
      <feOffset dx="5" dy="5" input="SourceAlpha"/>
      <feGaussianBlur stdDeviation="1" result="blur-6"/>
      <feFlood flood-color="#1f1f1f"/>
      <feComposite operator="in" in2="blur-6"/>
      <feComposite in="SourceGraphic"/>
    </filter>
    <filter id="Rectangle_1273" x="30.03" y="64.382" width="105" height="16" filterUnits="userSpaceOnUse">
      <feOffset dx="6" dy="6" input="SourceAlpha"/>
      <feGaussianBlur stdDeviation="1" result="blur-7"/>
      <feFlood flood-color="#1f1f1f"/>
      <feComposite operator="in" in2="blur-7"/>
      <feComposite in="SourceGraphic"/>
    </filter>
    <filter id="Rectangle_1274" x="41.03" y="77.785" width="105" height="16" filterUnits="userSpaceOnUse">
      <feOffset dx="6" dy="6" input="SourceAlpha"/>
      <feGaussianBlur stdDeviation="1" result="blur-8"/>
      <feFlood flood-color="#1f1f1f"/>
      <feComposite operator="in" in2="blur-8"/>
      <feComposite in="SourceGraphic"/>
    </filter>
    <filter id="Rectangle_1275" x="0" y="118.1" width="162.06" height="39.849" filterUnits="userSpaceOnUse">
      <feOffset dx="3" dy="5" input="SourceAlpha"/>
      <feGaussianBlur stdDeviation="1" result="blur-9"/>
      <feFlood flood-opacity="0.271"/>
      <feComposite operator="in" in2="blur-9"/>
      <feComposite in="SourceGraphic"/>
    </filter>
    <filter id="Ellipse_103" x="6.03" y="128.274" width="18" height="18" filterUnits="userSpaceOnUse">
      <feOffset dx="5" dy="5" input="SourceAlpha"/>
      <feGaussianBlur stdDeviation="1" result="blur-10"/>
      <feFlood flood-color="#1f1f1f"/>
      <feComposite operator="in" in2="blur-10"/>
      <feComposite in="SourceGraphic"/>
    </filter>
    <filter id="Rectangle_1276" x="30.03" y="122.463" width="105" height="16" filterUnits="userSpaceOnUse">
      <feOffset dx="6" dy="6" input="SourceAlpha"/>
      <feGaussianBlur stdDeviation="1" result="blur-11"/>
      <feFlood flood-color="#1f1f1f"/>
      <feComposite operator="in" in2="blur-11"/>
      <feComposite in="SourceGraphic"/>
    </filter>
    <filter id="Rectangle_1277" x="41.03" y="135.867" width="105" height="16" filterUnits="userSpaceOnUse">
      <feOffset dx="6" dy="6" input="SourceAlpha"/>
      <feGaussianBlur stdDeviation="1" result="blur-12"/>
      <feFlood flood-color="#1f1f1f"/>
      <feComposite operator="in" in2="blur-12"/>
      <feComposite in="SourceGraphic"/>
    </filter>
    <filter id="Rectangle_1278" x="0" y="177.151" width="162.06" height="39.849" filterUnits="userSpaceOnUse">
      <feOffset dx="3" dy="5" input="SourceAlpha"/>
      <feGaussianBlur stdDeviation="1" result="blur-13"/>
      <feFlood flood-opacity="0.271"/>
      <feComposite operator="in" in2="blur-13"/>
      <feComposite in="SourceGraphic"/>
    </filter>
    <filter id="Ellipse_104" x="6.03" y="187.791" width="18" height="18" filterUnits="userSpaceOnUse">
      <feOffset dx="5" dy="5" input="SourceAlpha"/>
      <feGaussianBlur stdDeviation="1" result="blur-14"/>
      <feFlood flood-color="#1f1f1f"/>
      <feComposite operator="in" in2="blur-14"/>
      <feComposite in="SourceGraphic"/>
    </filter>
    <filter id="Rectangle_1279" x="30.03" y="182.791" width="105" height="16" filterUnits="userSpaceOnUse">
      <feOffset dx="6" dy="6" input="SourceAlpha"/>
      <feGaussianBlur stdDeviation="1" result="blur-15"/>
      <feFlood flood-color="#1f1f1f"/>
      <feComposite operator="in" in2="blur-15"/>
      <feComposite in="SourceGraphic"/>
    </filter>
    <filter id="Rectangle_1280" x="41.03" y="194.791" width="105" height="16" filterUnits="userSpaceOnUse">
      <feOffset dx="6" dy="6" input="SourceAlpha"/>
      <feGaussianBlur stdDeviation="1" result="blur-16"/>
      <feFlood flood-color="#1f1f1f"/>
      <feComposite operator="in" in2="blur-16"/>
      <feComposite in="SourceGraphic"/>
    </filter>
  </defs>
  <g id="Group_34" data-name="Group 34" transform="translate(-882 -1716.15)">
    <g transform="matrix(1, 0, 0, 1, 882, 1716.15)" filter="url(#Rectangle_1145)">
      <rect id="Rectangle_1145-2" data-name="Rectangle 1145" width="156.06" height="31.849" rx="10" fill="#2d2d2d"/>
    </g>
    <g transform="matrix(1, 0, 0, 1, 882, 1716.15)" filter="url(#Ellipse_79)">
      <circle id="Ellipse_79-2" data-name="Ellipse 79" cx="5" cy="5" r="5" transform="translate(6.03 10.64)" fill="#ff962d"/>
    </g>
    <g transform="matrix(1, 0, 0, 1, 882, 1716.15)" filter="url(#Rectangle_1146)">
      <rect id="Rectangle_1146-2" data-name="Rectangle 1146" width="96" height="7" rx="3.5" transform="translate(30.03 5.64)" fill="#34b487"/>
    </g>
    <g transform="matrix(1, 0, 0, 1, 882, 1716.15)" filter="url(#Rectangle_1271)">
      <rect id="Rectangle_1271-2" data-name="Rectangle 1271" width="96" height="7" rx="3.5" transform="translate(41.03 17.64)" fill="#25a1fe"/>
    </g>
    <g transform="matrix(1, 0, 0, 1, 882, 1716.15)" filter="url(#Rectangle_1272)">
      <rect id="Rectangle_1272-2" data-name="Rectangle 1272" width="156.06" height="31.849" rx="10" transform="translate(0 59.05)" fill="#2d2d2d"/>
    </g>
    <g transform="matrix(1, 0, 0, 1, 882, 1716.15)" filter="url(#Ellipse_102)">
      <circle id="Ellipse_102-2" data-name="Ellipse 102" cx="5" cy="5" r="5" transform="translate(6.03 70.09)" fill="#ff962d"/>
    </g>
    <g transform="matrix(1, 0, 0, 1, 882, 1716.15)" filter="url(#Rectangle_1273)">
      <rect id="Rectangle_1273-2" data-name="Rectangle 1273" width="96" height="7" rx="3.5" transform="translate(30.03 64.38)" fill="#34b487"/>
    </g>
    <g transform="matrix(1, 0, 0, 1, 882, 1716.15)" filter="url(#Rectangle_1274)">
      <rect id="Rectangle_1274-2" data-name="Rectangle 1274" width="96" height="7" rx="3.5" transform="translate(41.03 77.79)" fill="#25a1fe"/>
    </g>
    <g transform="matrix(1, 0, 0, 1, 882, 1716.15)" filter="url(#Rectangle_1275)">
      <rect id="Rectangle_1275-2" data-name="Rectangle 1275" width="156.06" height="31.849" rx="10" transform="translate(0 118.1)" fill="#2d2d2d"/>
    </g>
    <g transform="matrix(1, 0, 0, 1, 882, 1716.15)" filter="url(#Ellipse_103)">
      <circle id="Ellipse_103-2" data-name="Ellipse 103" cx="5" cy="5" r="5" transform="translate(6.03 128.27)" fill="#ff962d"/>
    </g>
    <g transform="matrix(1, 0, 0, 1, 882, 1716.15)" filter="url(#Rectangle_1276)">
      <rect id="Rectangle_1276-2" data-name="Rectangle 1276" width="96" height="7" rx="3.5" transform="translate(30.03 122.46)" fill="#34b487"/>
    </g>
    <g transform="matrix(1, 0, 0, 1, 882, 1716.15)" filter="url(#Rectangle_1277)">
      <rect id="Rectangle_1277-2" data-name="Rectangle 1277" width="96" height="7" rx="3.5" transform="translate(41.03 135.87)" fill="#25a1fe"/>
    </g>
    <g transform="matrix(1, 0, 0, 1, 882, 1716.15)" filter="url(#Rectangle_1278)">
      <rect id="Rectangle_1278-2" data-name="Rectangle 1278" width="156.06" height="31.849" rx="10" transform="translate(0 177.15)" fill="#2d2d2d"/>
    </g>
    <g transform="matrix(1, 0, 0, 1, 882, 1716.15)" filter="url(#Ellipse_104)">
      <circle id="Ellipse_104-2" data-name="Ellipse 104" cx="5" cy="5" r="5" transform="translate(6.03 187.79)" fill="#ff962d"/>
    </g>
    <g transform="matrix(1, 0, 0, 1, 882, 1716.15)" filter="url(#Rectangle_1279)">
      <rect id="Rectangle_1279-2" data-name="Rectangle 1279" width="96" height="7" rx="3.5" transform="translate(30.03 182.79)" fill="#34b487"/>
    </g>
    <g transform="matrix(1, 0, 0, 1, 882, 1716.15)" filter="url(#Rectangle_1280)">
      <rect id="Rectangle_1280-2" data-name="Rectangle 1280" width="96" height="7" rx="3.5" transform="translate(41.03 194.79)" fill="#25a1fe"/>
    </g>
  </g>
</svg>
