<svg xmlns="http://www.w3.org/2000/svg" width="1919.5" height="136" viewBox="0 0 1919.5 136">
  <g id="Group_23" data-name="Group 23" transform="translate(-0.5 -3178)">
    <line id="Line_2" data-name="Line 2" x2="387" transform="translate(0.5 3245.5)" fill="none" stroke="#34b487" stroke-width="4"/>
    <g id="Ellipse_84" data-name="Ellipse 84" transform="translate(387 3222)" fill="none" stroke="#34b487" stroke-width="4">
      <circle cx="24" cy="24" r="24" stroke="none"/>
      <circle cx="24" cy="24" r="22" fill="none"/>
    </g>
    <circle id="Ellipse_85" data-name="Ellipse 85" cx="5" cy="5" r="5" transform="translate(406 3241)" fill="#34b487"/>
    <g id="Ellipse_86" data-name="Ellipse 86" transform="translate(1486 3222)" fill="none" stroke="#34b487" stroke-width="4">
      <circle cx="24" cy="24" r="24" stroke="none"/>
      <circle cx="24" cy="24" r="22" fill="none"/>
    </g>
    <circle id="Ellipse_87" data-name="Ellipse 87" cx="5" cy="5" r="5" transform="translate(1505 3241)" fill="#34b487"/>
    <g id="Ellipse_88" data-name="Ellipse 88" transform="translate(937 3222)" fill="none" stroke="#34b487" stroke-width="4">
      <circle cx="24" cy="24" r="24" stroke="none"/>
      <circle cx="24" cy="24" r="22" fill="none"/>
    </g>
    <circle id="Ellipse_89" data-name="Ellipse 89" cx="5" cy="5" r="5" transform="translate(956 3241)" fill="#34b487"/>
    <g id="Ellipse_90" data-name="Ellipse 90" transform="translate(660 3222)" fill="none" stroke="#34b487" stroke-width="4">
      <circle cx="24" cy="24" r="24" stroke="none"/>
      <circle cx="24" cy="24" r="22" fill="none"/>
    </g>
    <circle id="Ellipse_91" data-name="Ellipse 91" cx="5" cy="5" r="5" transform="translate(679 3241)" fill="#34b487"/>
    <g id="Ellipse_92" data-name="Ellipse 92" transform="translate(1214 3222)" fill="none" stroke="#34b487" stroke-width="4">
      <circle cx="24" cy="24" r="24" stroke="none"/>
      <circle cx="24" cy="24" r="22" fill="none"/>
    </g>
    <circle id="Ellipse_93" data-name="Ellipse 93" cx="5" cy="5" r="5" transform="translate(1233 3241)" fill="#34b487"/>
    <line id="Line_3" data-name="Line 3" x2="225" transform="translate(435 3246)" fill="none" stroke="#34b487" stroke-width="4"/>
    <line id="Line_4" data-name="Line 4" x2="229" transform="translate(708 3246)" fill="none" stroke="#34b487" stroke-width="4"/>
    <line id="Line_5" data-name="Line 5" x2="229" transform="translate(985 3246)" fill="none" stroke="#34b487" stroke-width="4"/>
    <line id="Line_6" data-name="Line 6" x2="225" transform="translate(1261 3246)" fill="none" stroke="#34b487" stroke-width="4"/>
    <line id="Line_7" data-name="Line 7" x2="386" transform="translate(1534 3246)" fill="none" stroke="#34b487" stroke-width="4"/>
    <line id="Line_8" data-name="Line 8" y2="29" transform="translate(684 3275)" fill="none" stroke="#34b487" stroke-linecap="round" stroke-width="4"/>
    <line id="Line_9" data-name="Line 9" y2="29" transform="translate(411 3188)" fill="none" stroke="#34b487" stroke-linecap="round" stroke-width="4"/>
    <line id="Line_10" data-name="Line 10" y2="29" transform="translate(961 3188)" fill="none" stroke="#34b487" stroke-linecap="round" stroke-width="4"/>
    <line id="Line_11" data-name="Line 11" y2="29" transform="translate(1238 3275)" fill="none" stroke="#34b487" stroke-linecap="round" stroke-width="4"/>
    <line id="Line_12" data-name="Line 12" y2="29" transform="translate(1510 3188)" fill="none" stroke="#34b487" stroke-linecap="round" stroke-width="4"/>
    <circle id="Ellipse_94" data-name="Ellipse 94" cx="5" cy="5" r="5" transform="translate(406 3178)" fill="#34b487"/>
    <circle id="Ellipse_95" data-name="Ellipse 95" cx="5" cy="5" r="5" transform="translate(679 3304)" fill="#34b487"/>
    <circle id="Ellipse_96" data-name="Ellipse 96" cx="5" cy="5" r="5" transform="translate(956 3178)" fill="#34b487"/>
    <circle id="Ellipse_97" data-name="Ellipse 97" cx="5" cy="5" r="5" transform="translate(1233 3304)" fill="#34b487"/>
    <circle id="Ellipse_98" data-name="Ellipse 98" cx="5" cy="5" r="5" transform="translate(1505 3178)" fill="#34b487"/>
  </g>
</svg>
