<svg xmlns="http://www.w3.org/2000/svg" xmlns:xlink="http://www.w3.org/1999/xlink" width="320" height="217" viewBox="0 0 320 217">
  <defs>
    <filter id="Rectangle_1232" x="2" y="0" width="318" height="217" filterUnits="userSpaceOnUse">
      <feOffset dy="3" input="SourceAlpha"/>
      <feGaussianBlur stdDeviation="3" result="blur"/>
      <feFlood flood-opacity="0.702"/>
      <feComposite operator="in" in2="blur"/>
      <feComposite in="SourceGraphic"/>
    </filter>
    <filter id="Rectangle_1282" x="0" y="0" width="56.712" height="217" filterUnits="userSpaceOnUse">
      <feOffset dy="3" input="SourceAlpha"/>
      <feGaussianBlur stdDeviation="3" result="blur-2"/>
      <feFlood flood-opacity="0.502"/>
      <feComposite operator="in" in2="blur-2"/>
      <feComposite in="SourceGraphic"/>
    </filter>
    <filter id="Rectangle_1283" x="70" y="0" width="182" height="21" filterUnits="userSpaceOnUse">
      <feOffset dy="3" input="SourceAlpha"/>
      <feGaussianBlur stdDeviation="3" result="blur-3"/>
      <feFlood flood-opacity="0.161"/>
      <feComposite operator="in" in2="blur-3"/>
      <feComposite in="SourceGraphic"/>
    </filter>
    <filter id="Rectangle_1284" x="70" y="196" width="182" height="21" filterUnits="userSpaceOnUse">
      <feOffset dy="3" input="SourceAlpha"/>
      <feGaussianBlur stdDeviation="3" result="blur-4"/>
      <feFlood flood-opacity="0.161"/>
      <feComposite operator="in" in2="blur-4"/>
      <feComposite in="SourceGraphic"/>
    </filter>
    <filter id="Rectangle_1285" x="299" y="17" width="21" height="182" filterUnits="userSpaceOnUse">
      <feOffset dy="3" input="SourceAlpha"/>
      <feGaussianBlur stdDeviation="3" result="blur-5"/>
      <feFlood flood-opacity="0.161"/>
      <feComposite operator="in" in2="blur-5"/>
      <feComposite in="SourceGraphic"/>
    </filter>
  </defs>
  <g id="Group_35" data-name="Group 35" transform="translate(-1252 -1705)">
    <g transform="matrix(1, 0, 0, 1, 1252, 1705)" filter="url(#Rectangle_1232)">
      <rect id="Rectangle_1232-2" data-name="Rectangle 1232" width="300" height="199" rx="20" transform="translate(11 6)" fill="#2d2d2d"/>
    </g>
    <g transform="matrix(1, 0, 0, 1, 1252, 1705)" filter="url(#Rectangle_1282)">
      <rect id="Rectangle_1282-2" data-name="Rectangle 1282" width="38.712" height="199" rx="10" transform="translate(9 6)" fill="#80868b"/>
    </g>
    <path id="Path_108" data-name="Path 108" d="M3,0H5A3,3,0,0,1,8,3V23a3,3,0,0,1-3,3H3a3,3,0,0,1-3-3V3A3,3,0,0,1,3,0Z" transform="translate(1293 1729) rotate(90)" fill="#2d2d2d"/>
    <path id="Path_109" data-name="Path 109" d="M3,0H5A3,3,0,0,1,8,3V23a3,3,0,0,1-3,3H3a3,3,0,0,1-3-3V3A3,3,0,0,1,3,0Z" transform="translate(1293 1757) rotate(90)" fill="#2d2d2d"/>
    <path id="Path_110" data-name="Path 110" d="M3,0H5A3,3,0,0,1,8,3V23a3,3,0,0,1-3,3H3a3,3,0,0,1-3-3V3A3,3,0,0,1,3,0Z" transform="translate(1293 1785) rotate(90)" fill="#2d2d2d"/>
    <path id="Path_111" data-name="Path 111" d="M3,0H5A3,3,0,0,1,8,3V23a3,3,0,0,1-3,3H3a3,3,0,0,1-3-3V3A3,3,0,0,1,3,0Z" transform="translate(1293 1813) rotate(90)" fill="#2d2d2d"/>
    <path id="Path_112" data-name="Path 112" d="M3,0H5A3,3,0,0,1,8,3V23a3,3,0,0,1-3,3H3a3,3,0,0,1-3-3V3A3,3,0,0,1,3,0Z" transform="translate(1293 1841) rotate(90)" fill="#2d2d2d"/>
    <path id="Path_113" data-name="Path 113" d="M3,0H5A3,3,0,0,1,8,3V23a3,3,0,0,1-3,3H3a3,3,0,0,1-3-3V3A3,3,0,0,1,3,0Z" transform="translate(1293 1869) rotate(90)" fill="#2d2d2d"/>
    <g transform="matrix(1, 0, 0, 1, 1252, 1705)" filter="url(#Rectangle_1283)">
      <rect id="Rectangle_1283-2" data-name="Rectangle 1283" width="164" height="3" rx="1.5" transform="translate(79 6)" fill="#34b487"/>
    </g>
    <g transform="matrix(1, 0, 0, 1, 1252, 1705)" filter="url(#Rectangle_1284)">
      <rect id="Rectangle_1284-2" data-name="Rectangle 1284" width="164" height="3" rx="1.5" transform="translate(79 202)" fill="#ff962d"/>
    </g>
    <g transform="matrix(1, 0, 0, 1, 1252, 1705)" filter="url(#Rectangle_1285)">
      <rect id="Rectangle_1285-2" data-name="Rectangle 1285" width="164" height="3" rx="1.5" transform="translate(311 23) rotate(90)" fill="#25a1fe"/>
    </g>
    <path id="Path_114" data-name="Path 114" d="M3,0H37a3,3,0,0,1,0,6H3A3,3,0,0,1,3,0Z" transform="translate(1311 1744)" fill="#0d0f1c"/>
    <rect id="Rectangle_1287" data-name="Rectangle 1287" width="196" height="3" rx="1.5" transform="translate(1331 1760)" fill="#0d0f1c"/>
    <path id="Path_115" data-name="Path 115" d="M1.5,0h193a1.5,1.5,0,0,1,0,3H1.5a1.5,1.5,0,0,1,0-3Z" transform="translate(1331 1769)" fill="#0d0f1c"/>
    <rect id="Rectangle_1289" data-name="Rectangle 1289" width="196" height="3" rx="1.5" transform="translate(1331 1778)" fill="#0d0f1c"/>
    <rect id="Rectangle_1290" data-name="Rectangle 1290" width="196" height="3" rx="1.5" transform="translate(1331 1787)" fill="#0d0f1c"/>
    <path id="Path_116" data-name="Path 116" d="M3,0H37a3,3,0,0,1,0,6H3A3,3,0,0,1,3,0Z" transform="translate(1311 1820)" fill="#0d0f1c"/>
    <rect id="Rectangle_1291" data-name="Rectangle 1291" width="196" height="3" rx="1.5" transform="translate(1331 1836)" fill="#0d0f1c"/>
    <path id="Path_117" data-name="Path 117" d="M1.5,0h193a1.5,1.5,0,0,1,0,3H1.5a1.5,1.5,0,0,1,0-3Z" transform="translate(1331 1845)" fill="#0d0f1c"/>
    <rect id="Rectangle_1292" data-name="Rectangle 1292" width="196" height="3" rx="1.5" transform="translate(1331 1854)" fill="#0d0f1c"/>
    <rect id="Rectangle_1293" data-name="Rectangle 1293" width="196" height="3" rx="1.5" transform="translate(1331 1863)" fill="#0d0f1c"/>
  </g>
</svg>
