<svg xmlns="http://www.w3.org/2000/svg" xmlns:xlink="http://www.w3.org/1999/xlink" width="740" height="625.5" viewBox="0 0 740 625.5">
  <defs>
    <filter id="Rectangle_1133" x="0" y="552" width="740" height="73.5" filterUnits="userSpaceOnUse">
      <feOffset dx="3" dy="5" input="SourceAlpha"/>
      <feGaussianBlur stdDeviation="1.5" result="blur"/>
      <feFlood flood-opacity="0.271"/>
      <feComposite operator="in" in2="blur"/>
      <feComposite in="SourceGraphic"/>
    </filter>
    <filter id="Ellipse_75" x="13.5" y="570" width="31" height="31" filterUnits="userSpaceOnUse">
      <feOffset dx="10" dy="10" input="SourceAlpha"/>
      <feGaussianBlur stdDeviation="1" result="blur-2"/>
      <feFlood flood-color="#1f1f1f"/>
      <feComposite operator="in" in2="blur-2"/>
      <feComposite in="SourceGraphic"/>
    </filter>
    <filter id="Rectangle_1134" x="54.5" y="568" width="568" height="24" filterUnits="userSpaceOnUse">
      <feOffset dx="10" dy="10" input="SourceAlpha"/>
      <feGaussianBlur stdDeviation="1" result="blur-3"/>
      <feFlood flood-color="#1f1f1f"/>
      <feComposite operator="in" in2="blur-3"/>
      <feComposite in="SourceGraphic"/>
    </filter>
    <filter id="Rectangle_1135" x="89.5" y="586" width="568" height="24" filterUnits="userSpaceOnUse">
      <feOffset dx="10" dy="10" input="SourceAlpha"/>
      <feGaussianBlur stdDeviation="1" result="blur-4"/>
      <feFlood flood-color="#1f1f1f"/>
      <feComposite operator="in" in2="blur-4"/>
      <feComposite in="SourceGraphic"/>
    </filter>
    <filter id="Rectangle_1136" x="1.5" y="414" width="737" height="72" filterUnits="userSpaceOnUse">
      <feOffset dx="3" dy="5" input="SourceAlpha"/>
      <feGaussianBlur stdDeviation="1" result="blur-5"/>
      <feFlood flood-opacity="0.271"/>
      <feComposite operator="in" in2="blur-5"/>
      <feComposite in="SourceGraphic"/>
    </filter>
    <filter id="Ellipse_76" x="13.5" y="432" width="31" height="31" filterUnits="userSpaceOnUse">
      <feOffset dx="10" dy="10" input="SourceAlpha"/>
      <feGaussianBlur stdDeviation="1" result="blur-6"/>
      <feFlood flood-color="#1f1f1f"/>
      <feComposite operator="in" in2="blur-6"/>
      <feComposite in="SourceGraphic"/>
    </filter>
    <filter id="Rectangle_1137" x="54.5" y="430" width="568" height="24" filterUnits="userSpaceOnUse">
      <feOffset dx="10" dy="10" input="SourceAlpha"/>
      <feGaussianBlur stdDeviation="1" result="blur-7"/>
      <feFlood flood-color="#1f1f1f"/>
      <feComposite operator="in" in2="blur-7"/>
      <feComposite in="SourceGraphic"/>
    </filter>
    <filter id="Rectangle_1138" x="89.5" y="448" width="568" height="24" filterUnits="userSpaceOnUse">
      <feOffset dx="10" dy="10" input="SourceAlpha"/>
      <feGaussianBlur stdDeviation="1" result="blur-8"/>
      <feFlood flood-color="#1f1f1f"/>
      <feComposite operator="in" in2="blur-8"/>
      <feComposite in="SourceGraphic"/>
    </filter>
    <filter id="Rectangle_1139" x="1.5" y="276" width="737" height="72" filterUnits="userSpaceOnUse">
      <feOffset dx="3" dy="5" input="SourceAlpha"/>
      <feGaussianBlur stdDeviation="1" result="blur-9"/>
      <feFlood flood-opacity="0.271"/>
      <feComposite operator="in" in2="blur-9"/>
      <feComposite in="SourceGraphic"/>
    </filter>
    <filter id="Ellipse_77" x="13.5" y="294" width="31" height="31" filterUnits="userSpaceOnUse">
      <feOffset dx="10" dy="10" input="SourceAlpha"/>
      <feGaussianBlur stdDeviation="1" result="blur-10"/>
      <feFlood flood-color="#1f1f1f"/>
      <feComposite operator="in" in2="blur-10"/>
      <feComposite in="SourceGraphic"/>
    </filter>
    <filter id="Rectangle_1140" x="54.5" y="292" width="568" height="24" filterUnits="userSpaceOnUse">
      <feOffset dx="10" dy="10" input="SourceAlpha"/>
      <feGaussianBlur stdDeviation="1" result="blur-11"/>
      <feFlood flood-color="#1f1f1f"/>
      <feComposite operator="in" in2="blur-11"/>
      <feComposite in="SourceGraphic"/>
    </filter>
    <filter id="Rectangle_1141" x="89.5" y="310" width="568" height="24" filterUnits="userSpaceOnUse">
      <feOffset dx="10" dy="10" input="SourceAlpha"/>
      <feGaussianBlur stdDeviation="1" result="blur-12"/>
      <feFlood flood-color="#1f1f1f"/>
      <feComposite operator="in" in2="blur-12"/>
      <feComposite in="SourceGraphic"/>
    </filter>
    <filter id="Rectangle_1142" x="1.5" y="138" width="737" height="72" filterUnits="userSpaceOnUse">
      <feOffset dx="3" dy="5" input="SourceAlpha"/>
      <feGaussianBlur stdDeviation="1" result="blur-13"/>
      <feFlood flood-opacity="0.271"/>
      <feComposite operator="in" in2="blur-13"/>
      <feComposite in="SourceGraphic"/>
    </filter>
    <filter id="Ellipse_78" x="13.5" y="156" width="31" height="31" filterUnits="userSpaceOnUse">
      <feOffset dx="10" dy="10" input="SourceAlpha"/>
      <feGaussianBlur stdDeviation="1" result="blur-14"/>
      <feFlood flood-color="#1f1f1f"/>
      <feComposite operator="in" in2="blur-14"/>
      <feComposite in="SourceGraphic"/>
    </filter>
    <filter id="Rectangle_1143" x="54.5" y="154" width="568" height="24" filterUnits="userSpaceOnUse">
      <feOffset dx="10" dy="10" input="SourceAlpha"/>
      <feGaussianBlur stdDeviation="1" result="blur-15"/>
      <feFlood flood-color="#1f1f1f"/>
      <feComposite operator="in" in2="blur-15"/>
      <feComposite in="SourceGraphic"/>
    </filter>
    <filter id="Rectangle_1144" x="89.5" y="172" width="568" height="24" filterUnits="userSpaceOnUse">
      <feOffset dx="10" dy="10" input="SourceAlpha"/>
      <feGaussianBlur stdDeviation="1" result="blur-16"/>
      <feFlood flood-color="#1f1f1f"/>
      <feComposite operator="in" in2="blur-16"/>
      <feComposite in="SourceGraphic"/>
    </filter>
    <filter id="Rectangle_1145" x="1.5" y="0" width="737" height="72" filterUnits="userSpaceOnUse">
      <feOffset dx="3" dy="5" input="SourceAlpha"/>
      <feGaussianBlur stdDeviation="1" result="blur-17"/>
      <feFlood flood-opacity="0.271"/>
      <feComposite operator="in" in2="blur-17"/>
      <feComposite in="SourceGraphic"/>
    </filter>
    <filter id="Ellipse_79" x="13.5" y="18" width="31" height="31" filterUnits="userSpaceOnUse">
      <feOffset dx="10" dy="10" input="SourceAlpha"/>
      <feGaussianBlur stdDeviation="1" result="blur-18"/>
      <feFlood flood-color="#1f1f1f"/>
      <feComposite operator="in" in2="blur-18"/>
      <feComposite in="SourceGraphic"/>
    </filter>
    <filter id="Rectangle_1146" x="54.5" y="16" width="568" height="24" filterUnits="userSpaceOnUse">
      <feOffset dx="10" dy="10" input="SourceAlpha"/>
      <feGaussianBlur stdDeviation="1" result="blur-19"/>
      <feFlood flood-color="#1f1f1f"/>
      <feComposite operator="in" in2="blur-19"/>
      <feComposite in="SourceGraphic"/>
    </filter>
    <filter id="Rectangle_1147" x="89.5" y="34" width="568" height="24" filterUnits="userSpaceOnUse">
      <feOffset dx="10" dy="10" input="SourceAlpha"/>
      <feGaussianBlur stdDeviation="1" result="blur-20"/>
      <feFlood flood-color="#1f1f1f"/>
      <feComposite operator="in" in2="blur-20"/>
      <feComposite in="SourceGraphic"/>
    </filter>
  </defs>
  <g id="Group_22" data-name="Group 22" transform="translate(-1001.5 -1316)">
    <g transform="matrix(1, 0, 0, 1, 1001.5, 1316)" filter="url(#Rectangle_1133)">
      <rect id="Rectangle_1133-2" data-name="Rectangle 1133" width="731" height="64" rx="10" transform="translate(1.5 552)" fill="#282828"/>
    </g>
    <g transform="matrix(1, 0, 0, 1, 1001.5, 1316)" filter="url(#Ellipse_75)">
      <g id="Ellipse_75-2" data-name="Ellipse 75" transform="translate(13.5 570)" fill="#ff962d" stroke="#707070" stroke-width="1">
        <circle cx="9" cy="9" r="9" stroke="none"/>
        <circle cx="9" cy="9" r="8.5" fill="none"/>
      </g>
    </g>
    <g transform="matrix(1, 0, 0, 1, 1001.5, 1316)" filter="url(#Rectangle_1134)">
      <g id="Rectangle_1134-2" data-name="Rectangle 1134" transform="translate(54.5 568)" fill="#34b487" stroke="#707070" stroke-width="1">
        <rect width="555" height="11" rx="5" stroke="none"/>
        <rect x="0.5" y="0.5" width="554" height="10" rx="4.5" fill="none"/>
      </g>
    </g>
    <g transform="matrix(1, 0, 0, 1, 1001.5, 1316)" filter="url(#Rectangle_1135)">
      <g id="Rectangle_1135-2" data-name="Rectangle 1135" transform="translate(89.5 586)" fill="#25a1fe" stroke="#707070" stroke-width="1">
        <rect width="555" height="11" rx="5" stroke="none"/>
        <rect x="0.5" y="0.5" width="554" height="10" rx="4.5" fill="none"/>
      </g>
    </g>
    <g transform="matrix(1, 0, 0, 1, 1001.5, 1316)" filter="url(#Rectangle_1136)">
      <rect id="Rectangle_1136-2" data-name="Rectangle 1136" width="731" height="64" rx="10" transform="translate(1.5 414)" fill="#282828"/>
    </g>
    <g transform="matrix(1, 0, 0, 1, 1001.5, 1316)" filter="url(#Ellipse_76)">
      <g id="Ellipse_76-2" data-name="Ellipse 76" transform="translate(13.5 432)" fill="#ff962d" stroke="#707070" stroke-width="1">
        <circle cx="9" cy="9" r="9" stroke="none"/>
        <circle cx="9" cy="9" r="8.5" fill="none"/>
      </g>
    </g>
    <g transform="matrix(1, 0, 0, 1, 1001.5, 1316)" filter="url(#Rectangle_1137)">
      <g id="Rectangle_1137-2" data-name="Rectangle 1137" transform="translate(54.5 430)" fill="#34b487" stroke="#707070" stroke-width="1">
        <rect width="555" height="11" rx="5" stroke="none"/>
        <rect x="0.5" y="0.5" width="554" height="10" rx="4.5" fill="none"/>
      </g>
    </g>
    <g transform="matrix(1, 0, 0, 1, 1001.5, 1316)" filter="url(#Rectangle_1138)">
      <g id="Rectangle_1138-2" data-name="Rectangle 1138" transform="translate(89.5 448)" fill="#25a1fe" stroke="#707070" stroke-width="1">
        <rect width="555" height="11" rx="5" stroke="none"/>
        <rect x="0.5" y="0.5" width="554" height="10" rx="4.5" fill="none"/>
      </g>
    </g>
    <g transform="matrix(1, 0, 0, 1, 1001.5, 1316)" filter="url(#Rectangle_1139)">
      <rect id="Rectangle_1139-2" data-name="Rectangle 1139" width="731" height="64" rx="10" transform="translate(1.5 276)" fill="#282828"/>
    </g>
    <g transform="matrix(1, 0, 0, 1, 1001.5, 1316)" filter="url(#Ellipse_77)">
      <g id="Ellipse_77-2" data-name="Ellipse 77" transform="translate(13.5 294)" fill="#ff962d" stroke="#707070" stroke-width="1">
        <circle cx="9" cy="9" r="9" stroke="none"/>
        <circle cx="9" cy="9" r="8.5" fill="none"/>
      </g>
    </g>
    <g transform="matrix(1, 0, 0, 1, 1001.5, 1316)" filter="url(#Rectangle_1140)">
      <g id="Rectangle_1140-2" data-name="Rectangle 1140" transform="translate(54.5 292)" fill="#34b487" stroke="#707070" stroke-width="1">
        <rect width="555" height="11" rx="5" stroke="none"/>
        <rect x="0.5" y="0.5" width="554" height="10" rx="4.5" fill="none"/>
      </g>
    </g>
    <g transform="matrix(1, 0, 0, 1, 1001.5, 1316)" filter="url(#Rectangle_1141)">
      <g id="Rectangle_1141-2" data-name="Rectangle 1141" transform="translate(89.5 310)" fill="#25a1fe" stroke="#707070" stroke-width="1">
        <rect width="555" height="11" rx="5" stroke="none"/>
        <rect x="0.5" y="0.5" width="554" height="10" rx="4.5" fill="none"/>
      </g>
    </g>
    <g transform="matrix(1, 0, 0, 1, 1001.5, 1316)" filter="url(#Rectangle_1142)">
      <rect id="Rectangle_1142-2" data-name="Rectangle 1142" width="731" height="64" rx="10" transform="translate(1.5 138)" fill="#282828"/>
    </g>
    <g transform="matrix(1, 0, 0, 1, 1001.5, 1316)" filter="url(#Ellipse_78)">
      <g id="Ellipse_78-2" data-name="Ellipse 78" transform="translate(13.5 156)" fill="#ff962d" stroke="#707070" stroke-width="1">
        <circle cx="9" cy="9" r="9" stroke="none"/>
        <circle cx="9" cy="9" r="8.5" fill="none"/>
      </g>
    </g>
    <g transform="matrix(1, 0, 0, 1, 1001.5, 1316)" filter="url(#Rectangle_1143)">
      <g id="Rectangle_1143-2" data-name="Rectangle 1143" transform="translate(54.5 154)" fill="#34b487" stroke="#707070" stroke-width="1">
        <rect width="555" height="11" rx="5" stroke="none"/>
        <rect x="0.5" y="0.5" width="554" height="10" rx="4.5" fill="none"/>
      </g>
    </g>
    <g transform="matrix(1, 0, 0, 1, 1001.5, 1316)" filter="url(#Rectangle_1144)">
      <g id="Rectangle_1144-2" data-name="Rectangle 1144" transform="translate(89.5 172)" fill="#25a1fe" stroke="#707070" stroke-width="1">
        <rect width="555" height="11" rx="5" stroke="none"/>
        <rect x="0.5" y="0.5" width="554" height="10" rx="4.5" fill="none"/>
      </g>
    </g>
    <g transform="matrix(1, 0, 0, 1, 1001.5, 1316)" filter="url(#Rectangle_1145)">
      <rect id="Rectangle_1145-2" data-name="Rectangle 1145" width="731" height="64" rx="10" transform="translate(1.5)" fill="#282828"/>
    </g>
    <g transform="matrix(1, 0, 0, 1, 1001.5, 1316)" filter="url(#Ellipse_79)">
      <g id="Ellipse_79-2" data-name="Ellipse 79" transform="translate(13.5 18)" fill="#ff962d" stroke="#707070" stroke-width="1">
        <circle cx="9" cy="9" r="9" stroke="none"/>
        <circle cx="9" cy="9" r="8.5" fill="none"/>
      </g>
    </g>
    <g transform="matrix(1, 0, 0, 1, 1001.5, 1316)" filter="url(#Rectangle_1146)">
      <g id="Rectangle_1146-2" data-name="Rectangle 1146" transform="translate(54.5 16)" fill="#34b487" stroke="#707070" stroke-width="1">
        <rect width="555" height="11" rx="5" stroke="none"/>
        <rect x="0.5" y="0.5" width="554" height="10" rx="4.5" fill="none"/>
      </g>
    </g>
    <g transform="matrix(1, 0, 0, 1, 1001.5, 1316)" filter="url(#Rectangle_1147)">
      <g id="Rectangle_1147-2" data-name="Rectangle 1147" transform="translate(89.5 34)" fill="#25a1fe" stroke="#707070" stroke-width="1">
        <rect width="555" height="11" rx="5" stroke="none"/>
        <rect x="0.5" y="0.5" width="554" height="10" rx="4.5" fill="none"/>
      </g>
    </g>
  </g>
</svg>
